<svg width="128" height="24" viewBox="0 0 128 24" fill="none" xmlns="http://www.w3.org/2000/svg">
<g clip-path="url(#clip0)">
<path d="M1.6025 22.0513C0.468327 20.3682 -0.0946878 18.3503 -3.57628e-07 16.3077V7.79487C-0.137348 5.73031 0.390413 3.67661 1.50235 1.94872C2.60407 0.615385 4.30673 0 6.81064 0C9.31455 0 10.9171 0.615385 11.9186 1.74359C13.006 3.17255 13.5409 4.96181 13.421 6.76923V8.82051H8.5133V6.46154C8.55294 5.76385 8.45062 5.06533 8.21283 4.41026C8.08573 4.14583 7.88428 3.9264 7.6344 3.78018C7.38452 3.63395 7.09763 3.56763 6.81064 3.58974C6.10955 3.58974 5.60876 3.79487 5.40845 4.30769C5.18187 5.03643 5.08022 5.79984 5.10798 6.5641V17.5385C5.05509 18.2799 5.19324 19.0227 5.50861 19.6923C5.70892 20.2051 6.2097 20.4103 6.9108 20.4103C7.61189 20.4103 8.01252 20.2051 8.21283 19.6923C8.44055 18.9992 8.54239 18.2692 8.5133 17.5385V15.0769H13.421V17.1282C13.5228 18.9651 12.9911 20.7803 11.9186 22.2564C10.9171 23.4872 9.2144 24.1026 6.81064 24.1026C4.40689 24 2.60407 23.3846 1.6025 22.0513Z" fill="#111111"/>
<path d="M19.3302 0.307678H25.0391L29.2457 23.6923H24.6385L23.8372 18.7692H20.532L19.7308 23.6923H15.0234L19.3302 0.307678ZM23.4366 15.6923L22.2347 6.56409L21.0328 15.6923H23.4366Z" fill="#111111"/>
<path d="M32.7511 4.20511H29.3458V0.307678H41.2645V4.10255H37.8591V23.6923H32.7511V4.20511Z" fill="#111111"/>
<path d="M50.3787 0.307678H59.1925V2.76922H53.4836V10.4615H58.0908V12.8205H53.4836V21.4359H59.1925V23.7949H50.2786V0.307678H50.3787Z" fill="#111111"/>
<path d="M61.7965 0.307678H64L70.5101 15.7949V0.307678H73.1142V23.6923H71.1111L64.5007 7.69229V23.6923H61.7965V0.307678Z" fill="#111111"/>
<path d="M76.1189 0.307678H84.9327V2.76922H79.2237V10.4615H83.8309V12.8205H79.2237V21.4359H84.9327V23.7949H76.1189V0.307678Z" fill="#111111"/>
<path d="M87.5368 0.307722H92.144C93.9564 0.179519 95.7575 0.685833 97.252 1.74362C98.3537 2.6667 98.8545 4.30772 98.8545 6.46157C98.8545 9.43593 97.9531 11.2821 96.0501 11.8975L99.2551 23.5898H96.1503L93.1456 12.6154H90.6416V23.5898H87.4366V0.307722H87.5368ZM91.9437 10.359C92.9762 10.4461 94.0054 10.1554 94.8482 9.53849C95.4492 9.02567 95.7496 8.00003 95.7496 6.46157C95.7774 5.69731 95.6757 4.9339 95.4492 4.20516C95.2237 3.68224 94.8366 3.24976 94.3474 2.97439C93.6576 2.65249 92.9003 2.5115 92.144 2.56413H90.7418V10.2564H91.9437V10.359Z" fill="#111111"/>
<path d="M102.861 21.9487C101.82 20.1554 101.331 18.0822 101.458 16V8.20513C101.434 6.71881 101.602 5.23573 101.959 3.79487C102.294 2.71817 102.962 1.78224 103.862 1.12821C104.981 0.450336 106.271 0.128978 107.568 0.205131C109.671 0.205131 111.174 0.717951 112.075 1.84616C113.112 3.33589 113.608 5.14984 113.477 6.97436V7.79488H110.473V7.07693C110.477 6.21795 110.41 5.36014 110.272 4.51282C110.188 3.97738 109.9 3.49798 109.471 3.17949C108.908 2.8011 108.24 2.62105 107.568 2.66667C106.85 2.61955 106.139 2.83791 105.565 3.28205C105.329 3.48535 105.137 3.73576 104.999 4.01793C104.861 4.3001 104.781 4.60811 104.764 4.92308C104.632 5.83999 104.565 6.76549 104.563 7.69231V16.4103C104.49 17.7384 104.694 19.0674 105.164 20.3077C105.565 21.1282 106.366 21.4359 107.568 21.4359C108.043 21.4965 108.524 21.4119 108.952 21.1929C109.379 20.9739 109.734 20.6302 109.972 20.2051C110.501 18.9082 110.741 17.5065 110.673 16.1026V14.4615H107.768V12.1026H113.577V23.6923H111.574L111.274 21.0256C111.011 21.9193 110.464 22.6975 109.72 23.2365C108.976 23.7754 108.078 24.0441 107.167 24C106.34 24.0498 105.513 23.8885 104.761 23.5305C104.01 23.1725 103.357 22.629 102.861 21.9487Z" fill="#111111"/>
<path d="M119.988 15.4872L115.08 0.410278H118.085L121.59 11.6923L124.995 0.410278H128L123.092 15.4872V23.6923H120.088V15.4872H119.988Z" fill="#111111"/>
</g>
<defs>
<clipPath id="clip0">
<rect width="128" height="24" fill="white"/>
</clipPath>
</defs>
</svg>
